<svg width="107" height="139" viewBox="0 0 107 139" fill="none" xmlns="http://www.w3.org/2000/svg">
<path d="M36.909 2.99724C21.9468 6.70966 6.14091 14.3595 1.92225 23.3593C-0.890189 29.2654 7.8284 78.5956 32.3529 111.107C56.8774 143.619 78.0269 140.919 91.3579 134.676C104.633 128.432 107.558 116.395 104.633 83.1518C101.708 49.9087 74.3145 12.1095 69.9833 6.31587C65.7084 0.465992 51.8712 -0.771426 36.909 2.99724Z" fill="#FCD375"/>
<path d="M36.7965 2.49104C23.4093 5.86597 6.1409 13.2345 1.47225 23.1343C-1.34019 29.0967 6.98464 78.2581 31.9591 111.389C45.8526 129.782 60.196 139.063 74.8769 139.007C80.3893 139.007 85.9579 137.713 91.5266 135.069C104.858 128.826 108.007 116.676 105.083 83.0955C102.214 50.4712 75.6644 13.1783 70.377 5.97844C65.9896 0.0723171 52.2087 -1.33388 36.7965 2.49104ZM91.1329 134.226C71.1645 143.563 51.5337 135.688 32.7466 110.77C8.50333 78.6519 -0.327727 29.2092 2.37222 23.528C6.59088 14.5845 22.8468 6.99092 37.0215 3.44725C42.7589 1.98478 48.2712 1.30976 53.1086 1.30976C60.9272 1.30976 67.0021 3.10967 69.5895 6.5971C74.8769 13.6844 101.314 50.8088 104.126 83.2081C107.107 116.676 104.183 128.095 91.1329 134.226Z" fill="#FCD375"/>
</svg>
