<svg width="61" height="75" viewBox="0 0 61 75" fill="none" xmlns="http://www.w3.org/2000/svg">
<path d="M14.8094 0.558337C14.7532 0.502088 14.6407 0.445867 14.5282 0.445867C14.4719 0.445867 9.01582 0.220844 1.14099 0.277093C0.972242 0.277093 0.859738 0.333287 0.74724 0.502033C0.634743 0.614531 0.634756 0.783305 0.691005 0.952051C1.19724 2.47077 1.92849 4.94577 2.77222 8.03945C7.72211 25.5891 18.0156 62.1508 38.209 74.2443C38.2652 74.3005 38.3777 74.3006 38.4339 74.3006C38.4902 74.3006 38.5464 74.3006 38.5464 74.3006C49.3462 71.3194 56.0398 68.1131 58.4585 64.682C63.9709 56.9196 58.2335 43.7012 41.4714 25.4766C29.0966 12.0894 14.9219 0.670835 14.8094 0.558337ZM57.7273 64.1758C55.4773 67.3257 48.84 70.5318 38.5464 73.3442C18.8031 61.307 8.6221 25.1953 3.72845 7.81438C2.94097 5.05819 2.32222 2.80832 1.81598 1.2896C8.62209 1.23335 13.4032 1.40212 14.3595 1.45837C17.2281 3.82082 69.877 46.9074 57.7273 64.1758Z" fill="#E8AE37"/>
</svg>
