<svg width="42" height="93" viewBox="0 0 42 93" fill="none" xmlns="http://www.w3.org/2000/svg">
<path d="M2.84591 0.95344C2.17093 3.48464 1.88967 5.05963 1.88967 5.05963C1.88967 5.05963 1.60844 6.3533 1.15845 8.6595C5.15211 27.6153 18.9331 89.9953 28.8891 91.964C40.5889 94.214 40.7014 88.9828 40.7014 88.9828C42.3326 89.7703 38.7889 58.7772 36.314 48.3149C36.314 48.3149 35.7514 37.7964 31.589 30.9341C27.9891 25.028 10.4395 0.503449 2.84591 0.95344Z" fill="#E8AE37"/>
<path d="M3.01464 0.503418C2.95839 0.503418 2.84591 0.503418 2.78966 0.503418C2.56467 0.503418 2.3959 0.672219 2.33965 0.840966C1.72091 3.37216 1.38342 5.00332 1.32717 5.00332C1.32717 5.00332 1.04594 6.29713 0.595947 8.60333C0.595947 8.65958 0.595947 8.71585 0.595947 8.7721C5.71459 33.2966 18.7643 90.5016 28.7203 92.414C30.7453 92.8078 32.489 92.9765 34.064 92.9765C36.5389 92.9765 38.4514 92.4703 39.6889 91.4578C40.6451 90.6704 40.9826 89.7703 41.0951 89.2641C42.8388 87.8016 38.7889 56.6398 36.7639 48.2024C36.7639 47.7524 36.1452 37.4589 31.9828 30.5965C29.6203 26.8841 11.5082 0.503418 3.01464 0.503418ZM40.4764 88.5328C40.4764 88.5328 40.4201 88.5328 40.4201 88.5891C40.3076 88.6453 40.1951 88.8141 40.1951 88.9828C40.1951 89.0391 40.1389 89.9953 39.0701 90.7827C37.8327 91.7952 35.0765 92.6952 28.9454 91.514C21.2955 90.0515 9.82074 47.8087 1.60842 8.7158C2.05841 6.46585 2.33965 5.2284 2.33965 5.2284C2.33965 5.2284 2.62091 3.76596 3.23965 1.45976C10.3832 1.79725 26.8079 24.0154 31.139 31.159C35.189 37.8526 35.8077 48.2025 35.8077 48.4275C38.2826 58.8898 41.2076 85.9454 40.4764 88.5328Z" fill="#E8AE37"/>
</svg>
