<svg width="7" height="20" viewBox="0 0 7 20" fill="none" xmlns="http://www.w3.org/2000/svg">
<path d="M5.85859 9.31796C5.80234 7.18051 5.74609 4.14307 5.57735 0.599396C4.90236 5.43679 3.4399 11.7367 1.47119 18.7678C4.22738 15.0554 5.91484 11.7367 5.85859 9.31796Z" fill="#F9C09D"/>
<path d="M5.57743 0.149506C5.35243 0.149506 5.12746 0.318225 5.07121 0.54322C4.39622 5.09937 3.04622 11.1742 0.965018 18.6553C0.908769 18.8803 1.02127 19.1053 1.24626 19.2178C1.30251 19.274 1.35877 19.2741 1.47127 19.2741C1.64002 19.2741 1.75252 19.2178 1.86502 19.049C4.9587 14.8304 6.42117 11.6242 6.36492 9.26179L6.30865 7.63049C6.25241 5.66178 6.19618 3.29933 6.08368 0.599386C6.02743 0.374391 5.85867 0.149506 5.57743 0.149506ZM2.65248 16.1804C3.72121 12.0743 4.62121 8.41808 5.23995 5.2119C5.23995 6.11188 5.29618 6.89925 5.29618 7.63049L5.35245 9.26179C5.4087 11.0055 4.50869 13.3117 2.65248 16.1804Z" fill="#F9C09D"/>
</svg>
