<svg width="24" height="5" viewBox="0 0 24 5" fill="none" xmlns="http://www.w3.org/2000/svg">
<path d="M23.4349 0.556305C18.7663 1.85003 11.6789 2.69373 0.87915 2.63748C0.87915 2.63748 0.991651 3.3125 1.21665 4.49372C5.37906 4.32498 19.7225 3.53749 23.4349 0.556305Z" fill="#F9AE82"/>
<path d="M23.2662 0.106264C18.0913 1.51248 10.554 2.24369 0.879161 2.18744C0.710414 2.18744 0.59791 2.24372 0.485412 2.35622C0.372915 2.46871 0.372925 2.63743 0.372925 2.74993C0.372925 2.74993 0.485426 3.42489 0.710421 4.54986C0.76667 4.77486 0.935409 4.94358 1.1604 4.94358C5.49156 4.77483 19.8913 3.98743 23.6599 0.949996C23.8287 0.781249 23.8849 0.556199 23.7724 0.331204C23.7162 0.106209 23.4912 0.0500148 23.2662 0.106264ZM1.61039 3.93121C1.55414 3.59372 1.4979 3.31247 1.44165 3.08748C7.85401 3.08748 13.4226 2.80612 17.9225 2.13114C13.4789 3.14362 7.23527 3.70621 1.61039 3.93121Z" fill="#F9AE82"/>
</svg>
