<svg width="70" height="102" viewBox="0 0 70 102" fill="none" xmlns="http://www.w3.org/2000/svg">
<path d="M64.4715 28.8241C66.3839 21.793 67.9026 15.4931 68.5776 10.6557C68.4651 7.78701 68.1839 4.5808 67.8464 1.20587C67.4526 0.924628 66.8902 0.868407 66.2714 1.0934C66.2714 1.0934 62.2215 3.84965 64.0215 8.46205C64.0215 8.46205 60.084 12.5681 60.984 17.518C61.884 22.4117 59.9153 26.4616 56.2591 29.6115C52.7155 32.649 20.2036 45.6425 14.5788 56.9485C14.5788 56.9485 4.62273 56.6109 1.2478 51.0985C1.2478 51.0985 1.30404 59.3672 11.7663 63.8108C11.7663 63.8108 9.34763 74.6106 12.5538 81.9792C14.9725 87.5478 13.6225 96.0413 12.8351 99.7537C15.31 101.104 17.6724 101.441 19.9224 100.316C31.3409 94.5226 27.7972 64.3733 27.7972 64.3733C27.7972 64.3733 53.8967 43.28 64.4715 28.8241Z" fill="#F9AE82"/>
<path d="M64.8652 29.1054C64.9214 29.0491 64.9214 28.9929 64.9214 28.9366C67.0026 21.3993 68.3526 15.2681 69.0276 10.5995C68.8588 7.33702 68.6338 4.1872 68.2963 1.14976C68.2963 1.03726 68.1839 0.868463 68.0714 0.812214C67.5089 0.418472 66.8339 0.362278 66.0464 0.587274C65.9901 0.587274 65.9339 0.64344 65.9339 0.64344C65.8776 0.699689 61.7715 3.56843 63.4027 8.29333C62.559 9.24956 59.634 13.0182 60.4215 17.5181C61.209 21.9617 59.6903 25.8429 55.8091 29.1616C54.8529 29.949 51.5905 31.5803 47.4843 33.6615C36.6283 39.1176 18.5724 48.1175 14.185 56.3861C12.4976 56.2736 4.39773 55.486 1.58529 50.8173C1.47279 50.6486 1.24779 50.5362 1.0228 50.5924C0.797804 50.6487 0.685303 50.8174 0.685303 51.0424C0.685303 51.1549 0.910301 59.4797 11.1476 64.0358C10.7538 66.0608 9.12261 75.3981 12.0475 82.0917C14.4662 87.6041 13.0038 96.154 12.3288 99.5852C12.2725 99.8102 12.3851 100.035 12.5538 100.091C14.185 100.935 15.6475 101.385 17.1099 101.385C18.1787 101.385 19.1349 101.16 20.0911 100.654C31.2284 94.9727 28.6409 67.692 28.2472 64.4858C30.7221 62.4609 54.8529 42.7738 64.8652 29.1054ZM27.4035 63.9233C27.291 64.0358 27.1785 64.2046 27.2347 64.3734C27.291 64.6546 30.6097 94.2415 19.5849 99.8101C17.7849 100.71 15.6475 100.598 13.285 99.4164C14.185 94.9727 15.2537 87.0979 12.8913 81.698C9.7976 74.6107 12.1038 63.9797 12.1601 63.8672C12.2163 63.6422 12.1038 63.4172 11.8788 63.3047C4.67896 60.2673 2.5415 55.3735 1.92277 52.786C6.02893 57.061 14.1288 57.3423 14.4663 57.3423C14.635 57.3423 14.8037 57.2298 14.9162 57.061C18.9099 49.0737 37.0783 39.9613 47.9343 34.5052C52.2654 32.3115 55.4154 30.7365 56.4841 29.8928C60.534 26.4054 62.2777 22.0742 61.3778 17.3493C60.534 12.7369 64.2464 8.7996 64.3027 8.74335C64.4152 8.63085 64.4714 8.40577 64.4152 8.23703C62.8965 4.29961 65.9902 1.82466 66.4401 1.48717C66.7776 1.37467 67.1151 1.37467 67.3401 1.48717C67.6776 4.41211 67.9026 7.50585 68.0714 10.5433C67.3964 15.0994 66.0464 21.1181 64.0215 28.5429C53.5592 42.8863 27.6847 63.6983 27.4035 63.9233Z" fill="#F9AE82"/>
</svg>
