<svg width="28" height="4" viewBox="0 0 28 4" fill="none" xmlns="http://www.w3.org/2000/svg">
<path d="M1.6472 2.23149C5.69711 2.51273 20.4905 3.35646 26.8467 1.669C18.8593 2.79397 0.803467 0.600189 0.803467 0.600189C0.803467 0.600189 1.30971 1.21901 1.6472 2.23149Z" fill="#F9AE82"/>
<path d="M26.7342 1.16264C18.8594 2.28761 1.02853 0.0939636 0.85978 0.0939636C0.634785 0.0939636 0.466059 0.150157 0.353562 0.318904C0.241064 0.48765 0.297299 0.712646 0.409797 0.881392C0.409797 0.881392 0.859801 1.50018 1.19729 2.34392C1.25354 2.51266 1.42228 2.68146 1.64728 2.68146C3.95348 2.85021 9.18461 3.13134 14.472 3.13134C19.1969 3.13134 23.9781 2.90646 26.9592 2.11898C27.1842 2.06273 27.353 1.78148 27.2967 1.55649C27.2405 1.33149 26.9592 1.16264 26.7342 1.16264ZM1.98476 1.72512C1.92851 1.50013 1.81601 1.33138 1.70351 1.16264C3.61597 1.38763 8.05964 1.83765 12.897 2.17514C8.39713 2.11889 4.17846 1.89387 1.98476 1.72512Z" fill="#F9AE82"/>
</svg>
