<svg width="72" height="184" viewBox="0 0 72 184" fill="none" xmlns="http://www.w3.org/2000/svg">
<path d="M49.4201 135.589C49.3076 135.645 49.1951 135.814 49.1951 135.983C49.1951 136.039 49.1388 136.995 48.0701 137.783C46.8326 138.795 44.0764 139.695 37.9453 138.514C30.2955 137.052 18.8207 94.6963 10.6084 55.6034C10.5521 55.3784 10.3834 55.2097 10.1584 55.2097C9.87716 55.2097 9.70842 55.3784 9.70842 55.6034C6.38974 72.6468 -9.30369 158.82 9.76466 178.901C12.4646 181.769 15.8395 183.232 19.6645 183.232C20.4519 183.232 21.2394 183.176 22.0832 183.063C63.0323 177.213 70.4009 129.402 71.1884 101.446C73.3821 21.6854 56.7886 4.58568 46.7764 1.54824C42.8952 0.367016 39.0703 0.817089 35.4141 2.89829C22.1957 10.3231 14.2646 36.8726 11.4521 47.8973C11.3959 48.0661 11.4521 48.1785 11.5646 48.3472C11.6771 48.4597 11.7896 48.516 11.9584 48.516C12.0146 48.516 12.0709 48.516 12.1271 48.516C19.1582 48.516 35.8079 71.0156 40.1953 78.2717C44.2452 84.9653 44.8639 95.315 44.8639 95.54C47.3389 106.002 50.32 133.058 49.5326 135.645C49.4763 135.533 49.4201 135.533 49.4201 135.589ZM45.7639 95.315C45.7639 94.865 45.1452 84.5716 40.9827 77.7092C38.7328 73.9405 21.1269 48.3473 12.4646 47.5598C15.3895 36.31 23.1519 10.8856 35.8078 3.74203C39.239 1.82957 42.7827 1.37947 46.4389 2.50444C70.1196 9.70429 70.9634 74.1093 70.1759 101.446C69.4446 129.121 62.1323 176.37 21.9144 182.107C17.302 182.782 13.4771 181.488 10.4396 178.282C-7.55997 159.326 6.10849 79.5653 10.1584 58.1908C15.6145 83.8402 28.158 137.614 37.7766 139.47C43.0077 140.483 46.7201 140.202 48.7451 138.514C49.7013 137.727 50.0388 136.827 50.1513 136.32C51.9513 134.858 47.5076 102.627 45.7639 95.315Z" fill="#FCD375"/>
</svg>
