<svg width="21" height="7" viewBox="0 0 21 7" fill="none" xmlns="http://www.w3.org/2000/svg">
<path d="M0.761434 0.201773C0.536439 0.145524 0.311444 0.258022 0.198946 0.483017C0.0864487 0.708012 0.142708 0.933062 0.367703 1.10181C1.09894 1.6643 1.83017 2.05807 2.50515 2.39556C7.23005 4.81426 12.0674 6.05173 17.0173 6.05173C17.9173 6.05173 18.8173 5.99537 19.7173 5.93912C19.9423 5.93912 20.1673 5.71424 20.1673 5.48924C20.1673 5.26425 20.0548 5.03917 19.7735 4.98292C13.3612 3.4642 7.00505 1.83299 0.761434 0.201773ZM3.91137 2.05801C7.90504 3.07049 11.8987 4.08291 15.9486 5.09539C11.8987 4.92664 7.84879 3.91422 3.91137 2.05801Z" fill="#4461AB"/>
</svg>
