<svg width="212" height="156" viewBox="0 0 212 156" fill="none" xmlns="http://www.w3.org/2000/svg">
<path d="M49.6048 141.983C49.3798 141.983 49.1548 142.208 49.1548 142.433C49.1548 142.658 49.2673 142.883 49.5485 142.939C69.2356 147.664 97.1912 153.626 118.566 155.258C119.016 155.314 119.466 155.314 119.972 155.314C128.916 155.314 139.097 148.733 150.29 135.739C182.577 98.1651 213.176 17.7292 211.208 9.23564C208.564 -2.18286 162.721 0.179641 160.752 0.292138L79.3041 6.92953C77.4479 6.42329 45.9486 -1.67654 25.7553 0.742156C14.1118 2.14838 5.95569 8.84198 1.1183 14.2419C0.949551 14.4106 0.949547 14.6356 1.06205 14.8044C1.17454 14.9731 1.39953 15.0855 1.56828 15.0293C4.49322 14.3543 9.04937 14.3543 13.943 18.5167C22.3803 25.604 39.4237 50.0723 49.0985 85.3403C57.4233 115.715 77.0542 121.396 81.3291 122.296C78.6854 125.502 66.0294 140.464 49.6048 141.983ZM82.5103 122.24C82.6228 122.127 82.6228 121.902 82.5666 121.733C82.5103 121.565 82.3416 121.452 82.1728 121.452C81.9478 121.396 59.1108 118.358 49.9985 85.0591C40.2675 49.5661 23.0553 24.9291 14.5618 17.7293C10.0619 13.9606 5.89945 13.3981 2.80576 13.7919C7.58691 8.72946 15.2367 2.93578 25.8678 1.64205C46.3986 -0.832893 78.8541 7.71693 79.1354 7.82942C79.1916 7.82942 79.2479 7.82942 79.3041 7.82942L160.809 1.19204C160.921 1.19204 172.733 0.57341 184.771 1.30464C200.408 2.26087 209.239 5.07326 210.251 9.40442C212.22 17.8417 181.677 97.6587 149.559 135.064C138.028 148.508 127.622 154.976 118.678 154.245C98.26 152.67 71.823 147.158 52.3609 142.545C69.7981 139.508 82.3978 122.408 82.5103 122.24Z" fill="#2893D0"/>
</svg>
