<svg width="38" height="120" viewBox="0 0 38 120" fill="none" xmlns="http://www.w3.org/2000/svg">
<path d="M3.91212 0.529186C3.91212 0.304191 3.74337 0.135417 3.57462 0.079168C3.34963 0.0229192 3.18089 0.135444 3.06839 0.247942C1.54967 2.49789 0.818434 4.01664 0.762185 4.07289C0.705936 4.18539 0.705933 4.29788 0.705933 4.35413L20.9555 114.602C21.0117 114.771 21.1242 114.939 21.293 114.995C21.3492 114.995 27.3116 116.739 36.4802 119.102C36.5364 119.102 36.5364 119.102 36.5927 119.102C36.7614 119.102 36.9302 118.989 37.0427 118.82C37.1552 118.595 37.0989 118.37 36.8739 118.202C14.3182 102.114 5.48709 17.3476 3.91212 0.529186ZM1.71842 4.4103C1.88717 4.07281 2.33716 3.22918 3.12464 1.99171C3.68713 8.01033 4.81211 18.4163 6.55582 30.7348L1.71842 4.4103ZM21.8555 114.152L13.4744 68.4215C19.3805 93.8459 26.4679 110.327 34.5677 117.583C27.7054 115.839 23.0367 114.489 21.8555 114.152Z" fill="#2893D0"/>
</svg>
