<svg width="210" height="155" viewBox="0 0 210 155" fill="none" xmlns="http://www.w3.org/2000/svg">
<path d="M48.661 142.433C69.8105 147.495 96.7537 153.12 117.566 154.751C157.727 157.845 212.289 20.4855 209.645 9.29198C207.058 -1.90153 159.696 0.685889 159.696 0.685889L78.1354 7.32328C78.1354 7.32328 45.511 -1.33904 24.6427 1.13591C13.3367 2.48588 5.29316 8.89827 0.343262 14.5231C3.49319 13.7919 8.10559 13.9043 13.1117 18.0667C22.224 25.7728 39.0987 51.0848 48.436 85.1716C57.7733 119.258 81.0603 121.958 81.0603 121.958C81.0603 121.958 67.4481 140.745 48.661 142.433ZM160.877 37.6413C160.877 37.6413 168.808 55.0222 171.508 44.2224C174.208 33.4226 190.014 16.3231 190.014 16.3231C190.014 16.3231 181.521 68.1281 166.558 72.0656C151.54 76.003 160.877 37.6413 160.877 37.6413ZM101.985 75.6093C102.266 68.3532 109.185 68.747 107.891 64.9783C106.597 61.2096 106.316 52.7723 106.316 52.7723C114.528 45.91 131.572 114.027 131.572 114.027C131.572 114.027 118.691 122.352 112.672 119.708C106.653 117.065 101.704 82.8654 101.985 75.6093Z" fill="#2893D0"/>
</svg>
