<svg width="34" height="58" viewBox="0 0 34 58" fill="none" xmlns="http://www.w3.org/2000/svg">
<path d="M32.5642 1.04178C31.8892 1.71676 16.6458 18.3664 13.9459 29.1662C13.6084 30.5724 12.9334 32.2035 11.9209 32.316C11.8646 32.316 11.8646 32.316 11.8084 32.316C9.55844 32.316 6.01478 26.2974 4.27107 22.4725C4.15857 22.3037 3.98981 22.1912 3.76482 22.1912C3.53982 22.1912 3.37108 22.3601 3.31483 22.5851C3.03359 23.7101 -3.21001 49.7532 3.53984 56.3905C4.60857 57.403 5.84602 57.9092 7.42099 57.9092C8.09598 57.9092 8.8272 57.7967 9.55844 57.628C24.6331 53.6343 33.0142 3.62925 33.4079 1.4918C33.4642 1.2668 33.3517 1.09797 33.1267 0.985474C32.958 0.816727 32.733 0.873031 32.5642 1.04178ZM9.33346 56.6156C7.19601 57.1781 5.50854 56.8406 4.27107 55.6031C-1.24131 50.2032 2.8086 29.6162 3.98983 24.1038C5.39605 26.9725 8.88345 33.2724 11.8084 33.2724C11.8646 33.2724 11.9209 33.2724 11.9772 33.2724C13.3271 33.1599 14.2271 31.8661 14.9021 29.3911C17.0958 20.5038 28.5143 7.11659 32.1705 2.95418C30.5392 11.8415 22.3269 53.1844 9.33346 56.6156Z" fill="#2893D0"/>
</svg>
