<svg width="32" height="70" viewBox="0 0 32 70" fill="none" xmlns="http://www.w3.org/2000/svg">
<path d="M4.69725 17.2407C3.00978 18.5907 0.647334 20.3905 0.478587 24.6092C0.197343 31.584 4.9785 66.2895 11.5034 69.1582C12.4033 69.552 13.4158 69.7207 14.5408 69.7207C21.1219 69.7207 30.403 63.7584 30.9092 63.4772C31.0779 63.3647 31.1905 63.1396 31.1342 62.9709C31.078 62.8021 27.4218 48.0649 22.6969 33.159C16.3408 13.0219 11.2221 2.16593 7.45344 0.9847C6.6097 0.703456 5.82223 0.87223 5.14725 1.43472C5.03475 1.54722 4.97851 1.65969 4.97851 1.82843C4.97851 2.16593 5.25975 10.3783 6.55347 14.147C6.89096 15.4407 6.21597 16.0595 4.69725 17.2407ZM7.34093 13.8095C6.21596 10.4908 5.87849 3.40343 5.82224 1.99721C6.21598 1.77221 6.6097 1.71593 7.05969 1.82843C9.42214 2.61592 13.8658 8.69084 21.6844 33.3841C25.9593 46.9963 29.4467 60.496 30.0092 62.8022C28.0968 63.9834 17.072 70.5083 11.8408 68.2583C6.21596 65.7834 1.09733 32.3153 1.43482 24.6655C1.60357 20.8968 3.62854 19.3218 5.25975 18.0281C6.72222 16.9031 8.07217 15.8344 7.34093 13.8095Z" fill="#2893D0"/>
</svg>
