<svg width="14" height="14" viewBox="0 0 14 14" fill="none" xmlns="http://www.w3.org/2000/svg">
<path d="M6.95881 13.0974C10.2828 13.0974 12.9774 10.4028 12.9774 7.07881C12.9774 3.75481 10.2828 1.06021 6.95881 1.06021C3.63482 1.06021 0.940186 3.75481 0.940186 7.07881C0.940186 10.4028 3.63482 13.0974 6.95881 13.0974Z" fill="#C0C3D6"/>
<path d="M0.490234 7.07879C0.490234 10.6787 3.41516 13.6037 7.01508 13.6037C10.615 13.6037 13.54 10.6787 13.54 7.07879C13.54 3.47887 10.615 0.554016 7.01508 0.554016C3.35891 0.610265 0.490234 3.53512 0.490234 7.07879ZM12.5275 7.07879C12.5275 10.1162 10.0525 12.5912 7.01508 12.5912C3.97765 12.5912 1.50271 10.1162 1.50271 7.07879C1.50271 4.04136 3.97765 1.56638 7.01508 1.56638C9.99627 1.56638 12.5275 4.04136 12.5275 7.07879Z" fill="#C0C3D6"/>
</svg>
