<svg width="27" height="32" viewBox="0 0 27 32" fill="none" xmlns="http://www.w3.org/2000/svg">
<path d="M17.9478 0.773638C10.3543 3.41733 4.22313 9.32335 2.47942 11.0671C-0.670511 14.2732 0.904459 22.1482 1.97319 27.323C2.08568 27.998 2.25444 28.6168 2.36693 29.1793C2.53568 30.1355 3.4919 31.2605 6.64183 31.2605C7.03557 31.2605 7.48558 31.2604 7.99181 31.2042C14.4042 30.6979 26.7227 26.0856 26.8914 21.1357C27.0601 15.0046 18.9041 1.50476 18.5666 0.942275C18.3978 0.829777 18.1728 0.717389 17.9478 0.773638ZM25.8789 21.1918C25.7664 25.1293 14.5729 29.7418 7.87931 30.3043C5.17937 30.5293 3.4919 30.0792 3.32315 29.0667C3.21066 28.5042 3.09817 27.8856 2.92942 27.2106C1.91694 22.2044 0.398223 14.667 3.15441 11.7983C4.78563 10.1109 10.6355 4.486 17.8354 1.84231C19.1853 3.97976 26.0477 15.8482 25.8789 21.1918Z" fill="#504566"/>
</svg>
