<svg width="38" height="69" viewBox="0 0 38 69" fill="none" xmlns="http://www.w3.org/2000/svg">
<path d="M11.198 0.592235C11.0293 0.535987 10.9168 0.535987 10.748 0.592235C10.3543 0.817231 1.24197 5.65457 0.848227 11.5044C0.454486 17.1856 12.6042 64.8283 14.4042 67.6408C14.5167 67.8658 14.9104 68.4283 15.4729 68.4283C15.5292 68.4283 15.5292 68.4283 15.5854 68.4283C16.5416 68.3158 16.9354 66.797 18.0041 63.1409C18.9603 59.8222 20.4228 54.7599 22.954 48.8537C24.8665 44.4101 27.2852 41.7101 30.2663 40.8101C33.6975 39.7414 36.6787 41.5413 36.6787 41.5976C36.8475 41.7101 37.1287 41.7101 37.2974 41.5414C37.4662 41.3726 37.4662 41.0913 37.3537 40.9226C37.1287 40.5851 12.4917 7.8483 11.4792 0.98595C11.423 0.817203 11.3105 0.704733 11.198 0.592235ZM29.9289 39.9101C26.7227 40.9226 24.0227 43.7913 21.9978 48.5162C19.4666 54.4786 18.0041 59.541 17.0479 62.9159C16.3729 65.1659 15.8104 67.3033 15.4729 67.5283C15.4729 67.5283 15.3604 67.472 15.1917 67.1908C13.3917 64.3783 1.35447 17.2419 1.74821 11.6732C2.0857 7.17332 8.61055 3.01096 10.5793 1.88599C12.6042 9.19833 30.6038 33.7228 35.385 40.0789C34.0913 39.5726 32.1226 39.2351 29.9289 39.9101Z" fill="#504566"/>
</svg>
