<svg width="33" height="27" viewBox="0 0 33 27" fill="none" xmlns="http://www.w3.org/2000/svg">
<path d="M1.97276 21.1787C1.86026 21.2912 1.86026 21.4599 1.86026 21.5724C1.86026 21.7411 1.97277 21.8536 2.08527 21.9098C6.64142 24.3848 12.66 26.1285 18.1162 26.1285C21.5473 26.1285 24.8098 25.4535 27.2847 23.766C31.3346 21.1223 33.0783 16.3974 32.4034 9.70384C31.9534 5.20394 29.6472 2.16653 25.766 0.872804C18.5662 -1.4334 6.86641 3.01029 0.285296 10.6039C0.172799 10.7726 0.116547 10.9413 0.229044 11.1101C0.285293 11.2788 0.45405 11.3913 0.679045 11.3913C4.33522 11.5038 7.59764 12.6851 9.22885 14.6538C8.10388 15.4412 5.34769 17.2975 1.97276 21.1787ZM10.1288 15.3287C10.2413 15.2725 10.3538 15.1601 10.3538 14.9913C10.4101 14.8788 10.3538 14.71 10.2976 14.5975C8.72261 12.3475 5.57268 10.8851 1.69152 10.6039C8.21638 3.74152 18.8474 -0.195978 25.4848 1.94148C28.9722 3.06645 31.0534 5.82275 31.4471 9.92892C32.0659 16.1725 30.4909 20.6161 26.7785 23.0348C20.8161 26.9722 10.2413 25.1723 3.09774 21.4036C7.0914 16.96 10.0726 15.3287 10.1288 15.3287Z" fill="#244698"/>
</svg>
