<svg width="15" height="13" viewBox="0 0 15 13" fill="none" xmlns="http://www.w3.org/2000/svg">
<path d="M4.67897 0.547607C4.56647 0.547607 4.39772 0.603884 4.28522 0.716381C2.71026 2.51634 1.52904 4.37258 0.741555 6.22879C0.685306 6.28504 0.685303 6.39748 0.685303 6.45373C0.7978 8.70368 4.11648 10.8412 6.08519 11.9661C6.14144 12.0224 6.25393 12.0224 6.31018 12.0224C6.42268 12.0224 6.59143 11.9662 6.64768 11.8537C10.8101 7.07252 14.0725 5.385 14.0725 5.32876C14.185 5.27251 14.2975 5.16009 14.2975 4.99135C14.3538 4.87885 14.2975 4.70999 14.2413 4.59749C12.5538 2.1788 8.95388 0.660105 4.67897 0.547607ZM6.19768 10.8975C3.49774 9.37875 1.81027 7.74751 1.64152 6.51004C2.37276 4.82257 3.44149 3.19133 4.84771 1.56011C8.44763 1.67261 11.5413 2.91011 13.1725 4.82257C12.1038 5.38506 9.51636 7.2413 6.19768 10.8975Z" fill="#283A84"/>
</svg>
