<svg width="11" height="16" viewBox="0 0 11 16" fill="none" xmlns="http://www.w3.org/2000/svg">
<path d="M6.97904 0.398571C6.86654 0.342322 6.69781 0.342322 6.58531 0.398571C6.36031 0.511068 1.35417 2.76097 0.622931 7.65461C-0.108303 12.717 9.56648 14.9669 10.0165 15.0794C10.0727 15.0794 10.0727 15.0794 10.129 15.0794C10.2415 15.0794 10.4102 15.0231 10.4665 14.9107C10.579 14.7982 10.6352 14.6295 10.579 14.4608L7.26028 0.735981C7.20403 0.623484 7.14779 0.45482 6.97904 0.398571ZM1.57915 7.76708C2.08539 4.27966 5.17908 2.25478 6.4728 1.52355L9.45398 13.842C7.20403 13.2795 1.07291 11.2545 1.57915 7.76708Z" fill="#191446"/>
</svg>
