<svg width="17" height="33" viewBox="0 0 17 33" fill="none" xmlns="http://www.w3.org/2000/svg">
<path d="M15.0728 0.828851C15.0166 0.660105 14.8478 0.547607 14.6228 0.547607C14.5103 0.547607 14.3416 0.547607 14.2291 0.547607C8.26672 0.547607 1.74186 3.47254 1.06687 10.1099C-0.00185317 20.6847 3.99182 31.9907 3.99182 32.1032C4.04807 32.272 4.21681 32.4407 4.4418 32.4407C4.6668 32.4407 4.83554 32.3282 4.89179 32.1032C8.04172 23.9472 12.0354 17.0848 16.6478 11.7974C16.7603 11.6849 16.7603 11.5162 16.7603 11.4037C16.7603 11.2349 16.6478 11.1224 16.5353 11.0661C13.6104 9.49114 11.8104 7.74745 11.6416 6.45373C12.3729 4.71002 13.4979 2.96639 14.9603 1.33517C15.1291 1.22268 15.1853 0.997598 15.0728 0.828851ZM10.7417 6.22879C10.6854 6.28504 10.6854 6.39748 10.6854 6.45373C10.7979 8.53494 13.6104 10.5036 15.5791 11.6286C11.3042 16.6347 7.59174 22.9909 4.55431 30.5282C3.59808 27.3221 1.23561 18.4909 2.07935 10.2224C2.64183 4.42875 8.26672 1.72886 13.6104 1.56011C12.3729 3.07883 11.4167 4.65382 10.7417 6.22879Z" fill="#4461AB"/>
</svg>
