<svg width="73" height="51" viewBox="0 0 73 51" fill="none" xmlns="http://www.w3.org/2000/svg">
<path d="M60.809 37.8869C60.7527 37.8869 58.1653 38.6743 55.5216 36.9868C55.0716 36.7056 54.4529 36.8181 54.1716 37.2681C53.8904 37.718 54.0029 38.3369 54.4529 38.6181C56.1966 39.7431 57.9403 40.0243 59.234 40.0243C60.4152 40.0243 61.2027 39.7993 61.2027 39.7993C68.2338 38.7305 72.8462 30.7995 71.5525 22.1372C70.2588 13.4749 63.4527 7.28744 56.4216 8.29992C52.9904 8.80616 50.178 10.9437 48.4905 14.2624C46.8593 17.4123 46.353 21.4622 46.9718 25.6809C47.028 26.1871 47.5343 26.5808 48.0968 26.4683C48.603 26.4121 48.9968 25.9058 48.8843 25.3433C48.3218 21.5184 48.7717 17.8623 50.178 15.1061C51.5842 12.2936 53.8341 10.6062 56.6466 10.1562C62.609 9.25618 68.4026 14.7123 69.5275 22.3621C70.8213 30.012 66.8838 36.9869 60.809 37.8869Z" fill="#F9AE82"/>
<path d="M1.46655 31.6432C3.04152 31.6432 10.8039 27.2559 14.0663 25.3997L13.11 23.7122C8.16015 26.5809 2.42278 29.6183 1.46655 29.6745V31.6432Z" fill="#F9AE82"/>
<path d="M22.9536 12.3498C15.3037 13.531 10.1851 21.7997 11.5913 30.7995C12.2663 35.1306 14.2913 39.0119 17.3287 41.7118C19.9161 44.018 23.0098 45.1992 26.1035 45.1992C26.7223 45.1992 27.341 45.143 27.9597 45.0867C31.6722 44.5243 34.9346 42.2743 37.072 38.7306C39.2095 35.2432 39.997 30.9683 39.322 26.6371C37.972 17.581 30.6034 11.1686 22.9536 12.3498ZM35.3846 37.7181C33.5284 40.7555 30.7722 42.668 27.6222 43.1742C24.4723 43.6804 21.2661 42.6118 18.5662 40.3056C15.8662 37.9431 14.01 34.4557 13.4475 30.5745C12.2101 22.5872 16.5975 15.331 23.1786 14.3185C23.6848 14.2623 24.1911 14.2061 24.6973 14.2061C30.7159 14.2061 36.2283 19.6059 37.3533 26.9745C37.972 30.7994 37.297 34.6244 35.3846 37.7181Z" fill="#F9AE82"/>
<path d="M61.9341 34.7369C61.9341 34.7369 59.2905 35.5244 56.6468 33.837C56.1968 33.5557 55.578 33.6682 55.2968 34.1182C55.0155 34.5682 55.128 35.1869 55.578 35.4681C57.3217 36.5931 59.1217 36.8743 60.3592 36.8743C61.5404 36.8743 62.3279 36.6494 62.3279 36.6494C69.359 35.5807 73.9714 27.6495 72.6214 18.9872C72.0027 14.8248 70.0902 11.1124 67.2778 8.4687C64.4091 5.82501 60.9217 4.64384 57.4905 5.15008C50.4594 6.21881 45.847 14.1498 47.1407 22.8121C47.3094 23.8246 48.2657 29.0557 50.9094 29.9557C51.4156 30.1245 51.9781 29.8433 52.1469 29.3371C52.3156 28.8308 52.0343 28.2682 51.5281 28.0995C50.4031 27.7057 49.3907 24.5558 49.0532 22.4746C47.8719 14.8248 51.8094 7.90616 57.7717 7.00618C60.5842 6.55619 63.5091 7.56867 65.9278 9.81862C68.4028 12.1248 70.0902 15.4436 70.6527 19.2123C71.9464 26.8621 68.0652 33.7806 61.9341 34.7369Z" fill="#191446"/>
<path d="M24.2473 9.14365C20.5349 9.70614 17.2725 11.9561 15.135 15.4998C12.9976 18.9872 12.2101 23.2621 12.8851 27.5933C14.1225 35.9181 20.4787 41.993 27.4535 41.993C28.0722 41.993 28.6347 41.9367 29.2535 41.8804C36.9033 40.6992 42.022 32.4307 40.6157 23.4309C39.2095 14.3749 31.8972 7.96242 24.2473 9.14365ZM28.916 39.968C22.3349 40.9805 15.9788 35.2994 14.7413 27.312C14.1788 23.4309 14.8538 19.5497 16.7662 16.5123C18.6224 13.4749 21.3787 11.5624 24.5286 11.0562C25.0348 10.9999 25.5411 10.9436 26.0473 10.9436C32.0659 10.9436 37.5783 16.3436 38.7033 23.7122C39.8845 31.6995 35.4971 38.9555 28.916 39.968Z" fill="#191446"/>
<path d="M50.628 38.2242C50.178 38.5055 50.0093 39.0681 50.2905 39.5743C50.4593 39.9118 50.7968 40.0805 51.1342 40.0805C51.303 40.0805 51.4717 40.0243 51.6405 39.968C51.9217 39.7993 58.8403 35.7494 58.2216 31.0245C57.9403 28.8308 55.8029 28.662 54.0592 28.5495C52.3154 28.437 50.4592 28.2682 49.278 26.862C48.0405 25.3995 47.6468 22.5872 48.0406 18.6498C48.0968 18.1435 47.7031 17.6372 47.1968 17.581C46.6343 17.5247 46.1843 17.9184 46.1281 18.4247C45.6219 22.9808 46.1843 26.187 47.8156 28.0995C49.503 30.1807 52.0342 30.3494 53.8904 30.5182C55.8029 30.6869 56.2529 30.7995 56.3091 31.3057C56.6466 34.0619 52.3155 37.2118 50.628 38.2242Z" fill="#62392C"/>
<path d="M42.6408 48.4054C42.1908 48.6866 42.022 49.2491 42.3033 49.7553C42.472 50.0366 42.8095 50.2053 43.147 50.2053C43.3158 50.2053 43.4845 50.1491 43.6532 50.0929C43.6532 50.0929 46.2407 48.6304 49.5031 48.9679C50.0094 49.0241 50.5156 48.6304 50.5719 48.1242C50.6281 47.6179 50.2344 47.1117 49.7281 47.0555C45.7345 46.6055 42.7532 48.2929 42.6408 48.4054Z" fill="#62392C"/>
<path d="M49.8967 1.83136C49.4467 2.05636 49.2217 2.67512 49.5029 3.12511C49.6717 3.46261 50.0092 3.6313 50.3467 3.6313C50.5154 3.6313 50.6842 3.57508 50.7967 3.51883C50.8529 3.51883 55.1841 1.21271 59.6277 2.33769C60.134 2.45018 60.6964 2.16883 60.8089 1.66259C60.9214 1.15635 60.6402 0.593946 60.134 0.481448C55.0153 -0.812275 50.1217 1.71887 49.8967 1.83136Z" fill="#62392C"/>
<path d="M25.9347 2.95632C25.4285 3.18132 25.2597 3.80008 25.4847 4.25007C25.6535 4.58757 25.991 4.81256 26.3285 4.81256C26.4972 4.81256 26.6097 4.75634 26.7785 4.70009C29.1409 3.51887 33.5283 4.13752 33.5846 4.19377C34.0908 4.25002 34.5971 3.91258 34.7096 3.40634C34.7658 2.9001 34.4283 2.39386 33.9221 2.28137C33.6971 2.22512 28.9159 1.49386 25.9347 2.95632Z" fill="#62392C"/>
<path d="M37.8596 18.1997C37.3534 18.3685 37.0722 18.9309 37.2972 19.4372C37.4659 19.8309 37.8034 20.056 38.1972 20.056C38.3097 20.056 38.4221 20.0559 38.5346 19.9997C40.2784 19.3809 45.4532 17.9748 48.0969 19.2122C48.6032 19.4372 49.1657 19.2122 49.3907 18.7622C49.6157 18.256 49.3907 17.6935 48.9407 17.4685C45.0033 15.6685 38.1409 18.0872 37.8596 18.1997Z" fill="#191446"/>
<path d="M1.35404 29.1683C5.2352 28.2121 13.7288 24.1058 14.1225 23.8808L13.2788 22.1372C13.1663 22.1935 4.61647 26.3558 0.904053 27.2558L1.35404 29.1683Z" fill="#191446"/>
<path d="M26.8794 34.473C30.5037 33.9224 32.8403 29.5171 32.0984 24.6335C31.3565 19.7499 27.817 16.2374 24.1927 16.788C20.5684 17.3386 18.2318 21.7438 18.9737 26.6274C19.7156 31.5109 23.2551 35.0236 26.8794 34.473Z" fill="white"/>
<path d="M24.1348 16.231C20.2537 16.8498 17.7225 21.5184 18.51 26.6371C18.9037 29.112 19.9724 31.3056 21.5474 32.8806C22.8974 34.2306 24.5286 34.9619 26.1598 34.9619C26.441 34.9619 26.7223 34.9619 27.0035 34.9056C28.916 34.6244 30.5472 33.3306 31.6159 31.3619C32.6284 29.3932 33.0221 26.9745 32.6284 24.4996C31.8409 19.3247 28.016 15.6685 24.1348 16.231ZM30.7159 30.9119C29.816 32.6556 28.4098 33.7244 26.8348 33.9494C25.2598 34.1744 23.5723 33.5556 22.2224 32.2056C20.8162 30.7994 19.8037 28.7745 19.4662 26.5246C18.7912 21.9122 20.9287 17.7498 24.3036 17.2435C24.5286 17.1873 24.7536 17.1872 24.9786 17.1872C28.0723 17.1872 30.9972 20.3934 31.6722 24.6683C32.0097 26.9183 31.6722 29.1119 30.7159 30.9119Z" fill="white"/>
<path d="M58.7841 12.7437C55.6904 13.1937 53.7217 17.0747 54.3404 21.3497C54.9591 25.6246 57.9966 28.7183 61.0903 28.2683C64.184 27.8183 66.1527 23.9371 65.5339 19.6622C64.9152 15.331 61.8778 12.2375 58.7841 12.7437Z" fill="white"/>
<path d="M58.7279 12.2374C55.353 12.7436 53.2155 16.8498 53.8905 21.4059C54.228 23.5996 55.128 25.5121 56.4779 26.9184C57.6592 28.1558 59.0654 28.7746 60.4716 28.7746C60.6966 28.7746 60.9216 28.7745 61.2028 28.7183C62.834 28.4933 64.2403 27.3683 65.1965 25.5683C66.0965 23.8808 66.3777 21.7434 66.0402 19.5497C65.3653 14.9935 62.0466 11.7311 58.7279 12.2374ZM64.3528 25.1184C63.5653 26.5809 62.4403 27.537 61.0903 27.7058C59.7403 27.9308 58.3904 27.3683 57.2092 26.1871C55.9717 24.9496 55.1842 23.2059 54.8467 21.2372C54.228 17.2435 56.0279 13.5873 58.8404 13.1936C59.0091 13.1373 59.2341 13.1374 59.4029 13.1374C62.0465 13.1374 64.5215 15.9497 65.084 19.6622C65.4215 21.6871 65.1403 23.5997 64.3528 25.1184Z" fill="white"/>
<path d="M21.7724 19.2684C19.5225 19.6059 18.1725 22.7559 18.6787 26.2433C19.2412 29.787 21.4349 32.3182 23.6849 31.9807C25.9348 31.6432 27.2848 28.4932 26.7786 25.0057C26.2161 21.5183 24.0224 18.9309 21.7724 19.2684Z" fill="#191446"/>
<path d="M21.7161 18.7622C20.4786 18.931 19.4099 19.8871 18.7911 21.3496C18.1724 22.7558 18.0037 24.4996 18.2849 26.2995C18.8474 29.8994 20.9849 32.4869 23.3473 32.4869C23.516 32.4869 23.6848 32.487 23.8535 32.4307C25.091 32.262 26.1597 31.3057 26.7785 29.8432C27.3972 28.437 27.566 26.6933 27.2847 24.8933C27.0035 23.0933 26.3285 21.4622 25.316 20.3372C24.2473 19.156 22.9536 18.5935 21.7161 18.7622ZM25.8223 29.5057C25.316 30.6869 24.5285 31.3619 23.6285 31.5307C21.6036 31.8119 19.6911 29.4495 19.1849 26.187C18.9599 24.5558 19.1286 22.9809 19.6349 21.7434C20.1411 20.5622 20.9286 19.8872 21.8286 19.7184C21.9411 19.7184 22.0536 19.7184 22.1661 19.7184C22.9536 19.7184 23.7973 20.1684 24.5285 21.0122C25.4285 22.0247 26.0473 23.4872 26.2722 25.1184C26.5535 26.6933 26.3848 28.2682 25.8223 29.5057Z" fill="#191446"/>
<path d="M56.8714 15.6123C55.0152 15.8936 53.834 18.4248 54.284 21.2935C54.734 24.1622 56.5902 26.2434 58.4464 25.9622C60.3026 25.6809 61.4839 23.1497 61.0339 20.281C60.5839 17.4686 58.7277 15.3311 56.8714 15.6123Z" fill="#191446"/>
<path d="M56.8153 15.1623C55.7466 15.3311 54.8466 16.1186 54.2841 17.2998C53.7779 18.4811 53.6091 19.9435 53.8341 21.406C54.0591 22.8685 54.6778 24.2184 55.5216 25.1747C56.3091 26.0746 57.209 26.5247 58.1653 26.5247C58.2778 26.5247 58.4465 26.5247 58.559 26.4684C59.6277 26.2997 60.5277 25.5122 61.0902 24.3309C61.5964 23.1497 61.7652 21.6872 61.5402 20.2247C61.3152 18.7623 60.6965 17.4123 59.8527 16.4561C58.9528 15.4436 57.8278 14.9936 56.8153 15.1623ZM60.1902 23.9372C59.7965 24.8372 59.1215 25.4559 58.3902 25.5684C57.659 25.6809 56.8716 25.3435 56.1966 24.556C55.4653 23.7685 54.9591 22.5873 54.7903 21.2935C54.5654 19.9998 54.7341 18.7623 55.1841 17.7498C55.6341 16.8499 56.2528 16.2312 56.984 16.1187C57.0965 16.1187 57.1528 16.1187 57.2653 16.1187C57.9403 16.1187 58.6153 16.4561 59.1777 17.1311C59.909 17.9185 60.4152 19.0998 60.584 20.3935C60.7527 21.6872 60.6402 22.9247 60.1902 23.9372Z" fill="#191446"/>
<path d="M25.541 24.3308C25.541 25.0621 26.1035 25.6246 26.8347 25.6246C27.566 25.6246 28.1284 25.0621 28.1284 24.3308C28.1284 23.5996 27.566 23.0371 26.8347 23.0371C26.1035 23.0371 25.541 23.6558 25.541 24.3308Z" fill="white"/>
<path d="M25.0911 24.3308C25.0911 25.287 25.8786 26.1308 26.891 26.1308C27.9035 26.1308 28.691 25.3433 28.691 24.3308C28.691 23.3183 27.9035 22.5309 26.891 22.5309C25.8786 22.5309 25.0911 23.3746 25.0911 24.3308ZM27.6785 24.3308C27.6785 24.7808 27.341 25.1184 26.891 25.1184C26.441 25.1184 26.1036 24.7808 26.1036 24.3308C26.1036 23.8808 26.441 23.5434 26.891 23.5434C27.341 23.5434 27.6785 23.8808 27.6785 24.3308Z" fill="white"/>
<path d="M59.9653 19.606C59.9653 20.281 60.5278 20.8434 61.2028 20.8434C61.8778 20.8434 62.4403 20.281 62.4403 19.606C62.4403 18.931 61.8778 18.3685 61.2028 18.3685C60.5278 18.3685 59.9653 18.931 59.9653 19.606Z" fill="white"/>
<path d="M59.5154 19.606C59.5154 20.5622 60.3029 21.2934 61.2028 21.2934C62.1591 21.2934 62.8903 20.506 62.8903 19.606C62.8903 18.6498 62.1028 17.9185 61.2028 17.9185C60.2466 17.9185 59.5154 18.6498 59.5154 19.606ZM61.9341 19.606C61.9341 19.9997 61.5966 20.3372 61.2028 20.3372C60.8091 20.3372 60.4716 19.9997 60.4716 19.606C60.4716 19.2122 60.8091 18.8747 61.2028 18.8747C61.5966 18.8747 61.9341 19.2122 61.9341 19.606Z" fill="white"/>
</svg>
