<svg width="10" height="25" viewBox="0 0 10 25" fill="none" xmlns="http://www.w3.org/2000/svg">
<path d="M1.15894 0.755672C1.38393 1.14941 1.60891 1.48693 1.77766 1.76818C11.115 -0.538023 7.45881 24.324 7.45881 24.324C7.45881 24.324 12.9712 -1.83177 1.15894 0.755672Z" fill="#DA6249"/>
<path d="M5.71586 2.21903C5.65852 2.16169 5.65852 2.16169 5.71586 2.21903C5.65852 2.16169 5.65852 2.21903 5.71586 2.21903Z" fill="#DA6249"/>
<path d="M7.34629 24.8301C7.40254 24.8301 7.40254 24.8301 7.45879 24.8301C7.68379 24.8301 7.90878 24.6614 7.90878 24.4364C8.07752 23.7052 11.5649 6.71806 6.39005 1.54317C5.04008 0.193194 3.24012 -0.200575 1.04641 0.249416C0.877667 0.305665 0.765183 0.361913 0.708935 0.53066C0.652686 0.643157 0.652686 0.811931 0.708935 0.980678C0.93393 1.37442 1.15891 1.76811 1.32766 2.04935C1.44016 2.2181 1.66516 2.33068 1.83391 2.27443C3.07138 1.93693 4.1401 2.1619 4.98383 2.94939C9.42749 6.9993 6.95254 24.0989 6.95254 24.2676C6.95254 24.4926 7.12129 24.7739 7.34629 24.8301ZM5.65882 2.16182C4.87134 1.48683 3.97137 1.14945 2.95889 1.14945C2.67764 1.14945 2.34014 1.20567 2.00265 1.26192C2.00265 1.20567 1.94642 1.2057 1.94642 1.14945C3.46513 0.924456 4.70259 1.26184 5.65882 2.16182C5.71507 2.21807 5.65882 2.21807 5.65882 2.16182Z" fill="#DA6249"/>
</svg>
