<svg width="17" height="37" viewBox="0 0 17 37" fill="none" xmlns="http://www.w3.org/2000/svg">
<path d="M1.1151 1.12464C1.05885 1.74337 1.11509 2.24961 1.17133 2.53086C18.8897 0.168406 16.246 35.7176 16.246 35.7176C16.246 35.7176 19.1147 -1.85655 1.1151 1.12464Z" fill="#DA6249"/>
<path d="M15.796 35.6614C15.796 35.9427 15.9647 36.1678 16.246 36.1678C16.246 36.1678 16.246 36.1678 16.3022 36.1678C16.5272 36.1678 16.7522 35.999 16.8084 35.7178C16.8647 34.7053 18.6084 11.0245 9.83361 3.03714C7.47116 0.843438 4.54623 0.0560642 1.11505 0.618552C0.890053 0.674801 0.7213 0.843438 0.7213 1.06843C0.665051 1.74342 0.721286 2.30602 0.777535 2.58726C0.833784 2.8685 1.05878 3.03722 1.34002 2.98097C4.48996 2.53098 7.18991 3.37474 9.32736 5.3997C17.3147 13.0495 15.796 35.324 15.796 35.6614ZM9.88985 4.72461C7.92114 2.86839 5.55869 1.91216 2.85875 1.91216C2.46501 1.91216 2.07126 1.91222 1.62127 1.96847C1.62127 1.85597 1.62127 1.6872 1.62127 1.51845C4.5462 1.12471 7.07741 1.85594 9.15862 3.7684C9.77736 4.33089 10.2836 4.94966 10.7898 5.62464C10.5086 5.3434 10.2273 5.00585 9.88985 4.72461Z" fill="#DA6249"/>
</svg>
