<svg width="5" height="29" viewBox="0 0 5 29" fill="none" xmlns="http://www.w3.org/2000/svg">
<path d="M2.09583 0.805872C1.47709 0.580876 0.91459 0.524628 0.4646 0.524628C3.83953 8.51196 3.38954 27.5241 3.38954 27.5241C3.38954 27.5241 4.00829 8.34321 2.09583 0.805872Z" fill="#DA6249"/>
<path d="M3.44582 28.0303C3.72706 28.0303 3.95203 27.8053 3.95203 27.5803C3.95203 26.7928 4.51454 8.23066 2.60208 0.693322C2.54584 0.524575 2.43334 0.41216 2.32084 0.355911C1.7021 0.130916 1.08336 0.0184186 0.520872 0.0746674C0.352125 0.0746674 0.239621 0.18711 0.127123 0.299608C0.0146254 0.412105 0.0146391 0.580879 0.0708879 0.749626C3.38957 8.51196 2.9958 27.3553 2.9958 27.5803C2.93955 27.8053 3.16457 28.0303 3.44582 28.0303ZM1.2521 1.08717C1.42085 1.14342 1.58959 1.14339 1.70208 1.19964C1.98333 2.32462 2.20833 3.67451 2.37708 5.19323C2.03958 3.67451 1.64584 2.2684 1.2521 1.08717Z" fill="#DA6249"/>
</svg>
