<svg width="37" height="27" viewBox="0 0 37 27" fill="none" xmlns="http://www.w3.org/2000/svg">
<path d="M33.8099 0.495013C31.5037 -0.179972 28.185 0.663746 23.9663 3.08244C11.9854 9.8323 3.54802 19.5634 0.45434 23.4446C0.398091 23.5008 0.341852 23.6133 0.341852 23.7258L0.173096 25.6945C0.173096 25.9195 0.285593 26.0883 0.45434 26.2008C0.510589 26.257 0.566851 26.257 0.679349 26.257C0.791846 26.257 0.960579 26.2007 1.01683 26.0882C1.24182 25.8632 22.3351 3.53246 35.6098 3.53246C35.7786 3.53246 36.0036 3.53246 36.1723 3.53246C36.3411 3.53246 36.5098 3.4762 36.6223 3.30745C36.7348 3.13871 36.7348 2.96995 36.6223 2.8012C35.9473 1.61998 34.9911 0.832506 33.8099 0.495013ZM1.24184 24.4008L1.29807 23.8945C4.39176 20.0133 12.6603 10.5073 24.4163 3.86994C28.41 1.61999 31.4474 0.776244 33.5286 1.39498C34.2036 1.61998 34.8224 1.95747 35.2724 2.51996C23.0664 2.85745 5.57299 20.0133 1.24184 24.4008Z" fill="#E46790"/>
</svg>
