<svg width="146" height="106" viewBox="0 0 146 106" fill="none" xmlns="http://www.w3.org/2000/svg">
<path d="M30.8357 15.1884C30.7794 15.0759 30.7232 14.9634 30.5544 14.9071C30.4419 14.8509 30.2732 14.8509 30.1607 14.9071C26.392 16.7071 17.7859 22.7257 17.8422 40.1628C15.0298 38.8128 4.79247 34.4817 1.19255 38.7566C-1.2824 41.7378 2.82376 46.4627 6.81743 51.0188C9.46112 54.0563 12.2173 57.2626 12.1611 59.1188C12.1611 59.2313 12.1611 59.4 12.2736 59.5125C16.0985 64.2936 19.3047 75.9371 22.1733 86.2307C23.8046 92.1368 25.3795 97.7053 26.8983 101.474C26.9545 101.587 27.067 101.699 27.1795 101.755C27.6857 101.98 36.6293 105.411 44.8979 105.411C48.2166 105.411 51.479 104.849 54.0102 103.274C62.5037 98.0429 109.921 55.6312 113.746 52.2563C115.884 52.5375 131.971 54.5626 142.321 46.744C145.077 44.6628 146.258 42.5254 145.921 40.2754C145.189 35.4943 137.652 32.0068 135.233 31.0505C141.308 25.1444 143.615 20.4758 142.04 17.0446C138.721 9.78853 119.09 10.9697 114.478 11.3634C115.828 8.94475 116.334 6.41355 115.94 4.33235C115.94 4.2761 115.884 4.21989 115.884 4.16364C108.29 -6.41113 74.991 6.24482 69.3661 8.49477L69.4786 7.76358C69.4786 7.59483 69.4223 7.42606 69.2536 7.31356C69.0849 7.20106 68.9161 7.20108 68.7474 7.25732C68.6911 7.25732 68.6349 7.31356 68.5786 7.31356C68.6911 6.01984 68.6911 3.71365 67.6786 1.91369C67.6224 1.74494 67.4536 1.68869 67.2849 1.63244C55.1352 1.1262 36.7418 18.957 32.3544 23.4569L32.4106 22.8382C32.4106 22.6132 32.2981 22.4445 32.1294 22.332C31.9044 22.2757 31.6794 22.332 31.5669 22.5007C31.5107 22.557 31.4544 22.6695 31.3982 22.7257C31.4544 20.6445 31.5669 17.4383 30.8357 15.1884ZM31.4544 25.1444C31.6231 25.2569 31.8481 25.2007 32.0169 25.0319C32.2419 24.8069 53.3352 2.47618 66.6099 2.47618C66.7224 2.47618 66.7786 2.47618 66.8912 2.47618C67.9599 4.78238 67.4536 7.93227 67.4536 7.98852C67.3974 8.15726 67.5099 8.38229 67.6786 8.43853C67.8474 8.55103 68.0161 8.55103 68.1849 8.43853C68.1849 8.43853 68.2411 8.43855 68.2974 8.3823L68.2411 9.00102C68.2411 9.16977 68.2974 9.33854 68.4099 9.45104C68.5224 9.56354 68.7474 9.56353 68.9161 9.50728C69.3099 9.33853 107.165 -6.12989 114.984 4.44488C115.378 6.46984 114.703 9.05729 113.128 11.476C113.015 11.6447 113.015 11.8135 113.128 11.9822C113.24 12.151 113.409 12.2072 113.578 12.2072C113.803 12.2072 137.708 9.78848 141.083 17.2696C142.49 20.3633 140.127 24.9195 133.94 30.7131C133.827 30.8256 133.771 30.9943 133.771 31.163C133.827 31.3317 133.94 31.4443 134.052 31.5005C134.165 31.5568 144.121 35.2693 144.852 40.2754C145.133 42.1316 144.064 44.044 141.59 45.844C130.902 53.9438 113.69 51.1876 113.521 51.1313C113.353 51.1313 113.24 51.1314 113.128 51.2439C112.621 51.6939 61.9975 97.0303 53.3914 102.318C45.4604 107.211 29.5982 101.474 27.6295 100.799C26.167 97.1429 24.6483 91.6867 23.0171 85.8931C20.1484 75.6558 16.9422 64.0123 13.061 59.0062C13.1173 56.7562 10.3611 53.6063 7.49242 50.2876C3.94875 46.2377 -0.0449331 41.6254 1.92378 39.2629C5.5237 34.9317 17.9547 41.1754 18.1234 41.2316C18.2922 41.2879 18.4609 41.2879 18.5734 41.2316C18.7422 41.1191 18.7984 41.0066 18.7984 40.8379C18.5172 24.1883 26.167 18.0008 29.9919 15.9759C30.7232 19.1821 30.0482 24.132 30.0482 24.1882C29.9919 24.4132 30.1607 24.6382 30.3294 24.6945C30.5544 24.7507 30.7794 24.6944 30.8919 24.5257C30.8919 24.5257 30.9482 24.4132 31.0607 24.2444L31.0044 24.5819C31.1732 24.8632 31.2857 25.0319 31.4544 25.1444Z" fill="#191446"/>
</svg>
