<svg width="146" height="105" viewBox="0 0 146 105" fill="none" xmlns="http://www.w3.org/2000/svg">
<path d="M27.292 101.249C27.292 101.249 44.9541 108.224 53.6726 102.824C62.3912 97.4242 113.465 51.6939 113.465 51.6939C113.465 51.6939 130.902 54.6189 141.927 46.2941C152.952 37.9693 134.221 31.1069 134.221 31.1069C159.758 7.03242 113.465 11.8135 113.465 11.8135C114.871 9.56359 115.828 6.75113 115.321 4.27619C107.278 -6.86108 68.5786 9.11357 68.5786 9.11357L68.7473 7.53864C68.1286 7.87614 67.7911 8.0449 67.7911 8.0449C67.7911 8.0449 68.4098 4.44495 67.0599 1.97C53.5039 1.29501 31.5669 24.6383 31.5669 24.6383L31.7356 22.6696C30.9481 23.6258 30.5544 24.2445 30.5544 24.2445C30.5544 24.2445 31.3419 18.5634 30.3294 15.3009C26.3357 17.2134 18.0109 23.3445 18.2922 40.8941C18.2922 40.8941 5.41118 34.3693 1.53002 39.0379C-2.35115 43.7066 13.0048 54.4502 12.5548 59.2313C18.6859 66.8249 23.1858 91.0681 27.292 101.249Z" fill="#191446"/>
</svg>
