<svg width="48" height="12" viewBox="0 0 48 12" fill="none" xmlns="http://www.w3.org/2000/svg">
<path d="M31.3467 0.257543C15.6532 1.83251 3.89723 7.45735 0.634798 9.14481C0.466052 9.20106 0.409803 9.36985 0.353554 9.53859L0.184814 11.1135C0.184814 11.2823 0.241056 11.451 0.353554 11.5635C0.466052 11.6198 0.5223 11.676 0.634798 11.676C0.691047 11.676 0.747306 11.676 0.803555 11.6198C1.1973 11.451 39.2215 -4.0736 46.9276 6.66992C47.0401 6.83867 47.3213 6.89487 47.4901 6.83862C47.7151 6.72613 47.8276 6.50113 47.7713 6.27614C47.2088 2.78871 43.7776 -1.03618 31.3467 0.257543ZM1.25354 10.3823L1.30979 9.87607C4.79722 8.07611 16.272 2.73246 31.4029 1.21374C38.884 0.426262 43.8339 1.49502 45.9151 4.19496C35.9028 -2.94864 6.54093 8.24487 1.25354 10.3823Z" fill="#E46790"/>
</svg>
