<svg width="34" height="48" viewBox="0 0 34 48" fill="none" xmlns="http://www.w3.org/2000/svg">
<path d="M33.6107 3.75095C33.8357 3.63846 33.9482 3.41346 33.892 3.18847C33.442 1.78225 32.767 0.882265 31.8108 0.65727C30.5733 0.319777 29.1108 0.938514 27.1984 2.62598C19.6048 9.31958 18.9298 22.0319 18.8173 25.1818C16.2861 24.3381 7.28629 21.7506 2.5614 25.463C1.54892 26.3068 0.986433 27.3755 0.930184 28.6692C0.817686 32.6066 5.26134 38.569 14.1487 46.3876C14.4861 46.6688 14.8236 47.0626 15.2174 47.5125C15.3299 47.625 15.4424 47.6813 15.5549 47.6813C15.5549 47.6813 15.5549 47.6813 15.6111 47.6813C15.7236 47.6813 15.8361 47.625 15.9486 47.5125C16.0049 47.4563 16.0611 47.3438 16.1174 47.2313C16.3424 44.9813 13.5299 41.7751 10.5487 38.344C7.00504 34.2941 3.01138 29.6816 4.98009 27.3191C8.58001 22.988 21.011 29.2316 21.1798 29.2879C21.3485 29.3441 21.5172 29.3441 21.6297 29.2879C21.7985 29.1754 21.8547 29.0629 21.8547 28.8941C21.5735 11.457 29.9545 5.49467 33.6107 3.75095ZM20.8985 28.1067C18.0861 26.7567 7.84878 22.4256 4.24886 26.7005C1.77391 29.6817 5.88007 34.4066 9.87374 38.9628C11.8987 41.3252 13.9799 43.6876 14.8236 45.5438C6.33006 38.0065 1.88641 32.1566 1.99891 28.6129C1.99891 27.6004 2.44889 26.7567 3.23637 26.138C4.86759 24.8443 7.11754 24.3942 9.47999 24.3942C14.2049 24.3942 19.0985 26.1942 19.1548 26.1942C19.3235 26.2504 19.4923 26.2505 19.6048 26.138C19.7173 26.0255 19.8298 25.913 19.8298 25.7443C19.8298 25.5755 19.7173 10.5008 27.8734 3.2447C29.4483 1.83848 30.6858 1.27601 31.5295 1.501C32.092 1.66975 32.4857 2.17596 32.8232 3.01969C28.8858 5.1009 20.8423 11.2883 20.8985 28.1067Z" fill="#E46790"/>
</svg>
