<svg width="26" height="23" viewBox="0 0 26 23" fill="none" xmlns="http://www.w3.org/2000/svg">
<path d="M19.9661 8.06101C19.7974 8.06101 19.5724 8.06101 19.4036 8.06101C10.0101 8.06101 0.84153 0.917386 0.785281 0.861137C0.616535 0.74864 0.391539 0.74864 0.222793 0.861137C0.0540465 0.973635 -0.00219545 1.19863 0.0540534 1.42363C3.71023 11.8859 20.3599 22.0669 22.7223 22.0669C22.7786 22.0669 22.8348 22.0669 22.8911 22.0669C23.0036 22.0107 23.1723 21.8982 23.2286 21.7295C23.5098 21.2233 27.3347 13.9109 25.0848 10.1985C24.0723 8.67978 22.3848 8.00476 19.9661 8.06101ZM22.3848 20.9982C20.1911 20.2108 6.01642 12.2235 1.57276 2.60491C4.6102 4.68611 12.2038 9.24221 20.0224 9.01721C22.0473 8.96096 23.4536 9.52353 24.1285 10.6485C25.9847 13.6297 23.0598 19.7608 22.3848 20.9982Z" fill="#E68262"/>
</svg>
