<svg width="99" height="133" viewBox="0 0 99 133" fill="none" xmlns="http://www.w3.org/2000/svg">
<path d="M96.2151 33.0371C96.89 32.8121 97.3963 32.8685 97.7901 33.1497C96.5526 22.1812 93.6839 9.35635 86.5403 0.694031C86.5403 0.694031 88.2277 5.7002 81.1404 7.33142C80.7467 7.44392 80.2404 7.50025 79.7342 7.5565C73.4343 9.24396 58.6409 8.40023 54.5347 8.11898C55.2659 10.2564 55.0409 14.0812 46.3224 16.4437C42.6662 19.4249 28.2665 20.2125 24.1041 20.3249C25.5666 28.706 31.0227 63.0178 22.3041 57.5616C22.3041 57.5616 12.9668 46.1431 4.02329 53.8492C-4.92027 61.5552 3.40454 86.2486 20.2229 78.1488C20.2229 78.1488 25.0041 78.7674 21.2354 103.686C21.2354 103.686 32.3164 126.016 42.61 131.585C43.3974 127.816 44.7474 119.379 42.3287 113.81C39.1225 106.498 41.5412 95.642 41.5412 95.642C31.079 91.1984 31.0227 82.9299 31.0227 82.9299C34.3976 88.4423 44.3537 88.7797 44.3537 88.7797C49.9786 77.4737 82.4904 64.4802 86.034 61.4427C89.6902 58.2928 91.6589 54.2991 90.759 49.3493C89.859 44.4556 93.7964 40.2933 93.7964 40.2933C92.1652 35.7934 96.2151 33.0371 96.2151 33.0371Z" fill="#F9C09D"/>
<path d="M96.44 33.4872C96.89 33.3747 97.2275 33.3746 97.565 33.5996C97.7337 33.7121 97.9025 33.7121 98.0713 33.5996C98.24 33.4871 98.3525 33.3185 98.2962 33.1497C96.665 18.5813 92.8401 7.61273 86.9902 0.469132C86.8215 0.300386 86.5965 0.244164 86.3715 0.356662C86.1465 0.46916 86.0903 0.694155 86.1465 0.91915C86.1465 0.91915 86.6527 2.49403 85.7528 4.069C84.9653 5.41897 83.3903 6.43151 81.0841 6.93775C80.6904 7.05024 80.2404 7.10649 79.6779 7.21899C73.4905 8.8502 58.9783 8.06272 54.6472 7.78148C54.4784 7.72523 54.3097 7.83775 54.2534 7.95025C54.1409 8.06275 54.1409 8.23152 54.1972 8.40027C54.5909 9.52525 54.4784 10.5939 53.9722 11.6064C52.9597 13.5189 50.3723 15.0376 46.3223 16.1063C46.2661 16.1063 46.2099 16.1625 46.1536 16.2188C43.3412 18.525 32.9914 19.7062 24.2166 19.9874C24.1041 19.9874 23.9353 20.0437 23.8791 20.1562C23.7666 20.2687 23.7666 20.3812 23.7666 20.5499C26.4665 36.1871 28.379 55.2555 24.8915 57.5617C24.6666 57.6742 24.1041 58.0679 22.8104 57.2804C22.2479 56.6054 17.6355 51.3181 11.7856 50.8118C8.9169 50.5868 6.32945 51.4867 3.91075 53.568C-0.420405 57.2804 -1.71413 66.449 3.29201 74.0426C7.28568 80.1737 13.698 81.9175 20.4479 78.7113C21.0666 79.105 24.2166 82.2548 21.0104 103.629C21.0104 103.742 21.0104 103.854 21.0666 103.911C21.5166 104.811 32.3726 126.466 42.6662 131.979C42.7224 132.035 42.8349 132.035 42.8912 132.035C42.9474 132.035 43.0037 132.035 43.1162 131.979C43.2287 131.923 43.3412 131.81 43.3974 131.641C44.2974 127.254 45.4786 119.098 43.0599 113.529C39.9662 106.442 42.2724 95.8109 42.3287 95.6984C42.3849 95.4734 42.2724 95.2484 42.0474 95.1359C34.8476 92.0985 32.7101 87.2048 32.0914 84.6174C36.1976 88.8923 44.2974 89.1735 44.6349 89.1735C44.8036 89.1735 44.9724 89.061 45.0849 88.8922C49.0785 80.9049 67.2469 71.7927 78.1029 66.3365C82.4341 64.1428 85.584 62.5678 86.6527 61.724C90.7026 58.2366 92.4464 53.9056 91.5464 49.1807C90.7026 44.5683 94.4151 40.6308 94.4713 40.5746C94.5838 40.4621 94.6401 40.237 94.5838 40.0682C92.8964 36.2996 95.99 33.8246 96.44 33.4872ZM93.4026 40.2933C92.5588 41.2495 89.6339 45.0182 90.4214 49.5181C91.2089 53.9617 89.6902 57.8429 85.809 61.1615C84.8528 61.949 81.5903 63.5802 77.4842 65.6614C66.6282 71.1176 48.5723 80.1175 44.1849 88.386C42.4974 88.2736 34.3976 87.486 31.5852 82.8173C31.4727 82.6486 31.2477 82.5361 31.0227 82.5924C30.7977 82.6486 30.6852 82.8174 30.6852 83.0424C30.6852 83.1549 30.9102 91.4796 41.1475 96.0358C40.7537 98.0608 39.1225 107.398 42.0474 114.092C44.2974 119.267 43.1724 127.198 42.4412 130.966C32.9914 125.285 22.8104 105.598 21.9104 103.742C24.6103 85.8549 22.8666 80.3424 21.5729 78.655C21.0104 77.9237 20.5041 77.8112 20.4479 77.8112C20.3354 77.8112 20.2792 77.8113 20.1667 77.8675C11.0543 82.255 5.87945 76.3488 4.07949 73.5926C0.367072 67.9115 -0.420402 58.5742 4.52949 54.3555C6.7232 52.4993 9.14188 51.6556 11.6731 51.8243C17.3542 52.3306 22.0791 57.9554 22.0791 58.0117C22.1354 58.0679 22.1354 58.0679 22.1916 58.1242C23.4291 58.9116 24.4978 59.0241 25.3978 58.4054C30.0665 55.2555 26.6353 31.6309 24.8353 20.9436C29.6727 20.7186 42.9474 19.9312 46.7161 17.0062C50.991 15.825 53.7472 14.1376 54.8722 12.0564C55.4346 11.044 55.6034 9.9189 55.3784 8.73768C60.3845 9.07517 73.9968 9.75024 79.9591 8.11903C80.4654 8.06278 80.9716 7.95028 81.4216 7.83778C84.0653 7.21904 85.809 6.09407 86.709 4.46285C87.1027 3.73162 87.2715 2.94411 87.3277 2.32537C92.4464 9.18773 95.765 19.3125 97.34 32.4185C97.0025 32.3622 96.6088 32.4185 96.1588 32.531C96.1025 32.531 96.0463 32.5873 96.0463 32.5873C95.9338 32.6998 91.7714 35.5684 93.4026 40.2933Z" fill="#F9C09D"/>
</svg>
