<svg width="84" height="107" viewBox="0 0 84 107" fill="none" xmlns="http://www.w3.org/2000/svg">
<path d="M82.7457 20.087C79.7645 13.6746 77.0083 11.4809 75.0958 10.8059C77.0083 18.3432 76.4458 37.5241 76.4458 37.5241C76.4458 37.5241 76.8958 18.512 73.5209 10.5247C72.8459 10.5247 72.5084 10.7496 72.5084 10.7496C71.5522 8.5559 64.2398 0.287324 58.6712 0.624816C55.0713 0.849812 54.2838 3.32476 54.2276 5.12472C72.2272 2.14353 69.3585 39.7177 69.3585 39.7177C69.3585 39.7177 72.0022 4.16849 54.2838 6.53094C54.2838 6.69969 54.34 6.86849 54.34 6.86849C50.6838 9.45593 52.0901 13.5057 53.2713 15.7557C65.0836 13.1682 59.5712 39.324 59.5712 39.324C59.5712 39.324 63.2273 14.462 53.89 16.7682C54.1713 17.2182 54.34 17.4432 54.34 17.4432C47.1964 19.9181 50.6276 27.118 47.4777 33.8116C44.384 40.5052 12.7159 49.5613 3.8286 63.2298C-5.11496 76.9545 10.0722 106.035 10.0722 106.035L60.4149 97.204C60.4149 97.204 57.6025 84.098 57.49 78.8107C57.3775 73.5233 65.3648 68.6858 73.1834 58.3923C80.8895 48.155 83.8144 22.4494 82.7457 20.087Z" fill="#F9C09D"/>
<path d="M57.7156 17.219C57.6583 17.1617 57.6583 17.1617 57.7156 17.219C57.6583 17.1617 57.6583 17.219 57.7156 17.219Z" fill="#F9C09D"/>
<path d="M73.4646 58.7298C81.2269 48.4925 84.4894 22.7306 83.1957 19.9181C80.7207 14.5745 78.0208 11.3682 75.2646 10.412C75.0958 10.3558 74.9271 10.4121 74.7584 10.5246C74.6459 10.6371 74.5896 10.8058 74.5896 11.0308C74.8708 12.212 75.0958 13.6746 75.3208 15.3058C74.9271 13.5058 74.4771 11.8183 73.9146 10.4683C73.8584 10.2996 73.6333 10.1871 73.4646 10.1871C73.1271 10.1871 72.9021 10.2433 72.6771 10.2995C71.1584 7.65585 64.4086 0.287231 58.8962 0.287231C58.7837 0.287231 58.6712 0.287231 58.5587 0.287231C54.5088 0.512227 53.7213 3.49344 53.6088 5.23715C53.6088 5.4059 53.665 5.51837 53.7775 5.63087C53.89 5.74337 54.0588 5.74347 54.1713 5.74347C57.265 5.23724 59.9649 5.96842 62.1024 7.93712C62.7211 8.49961 63.2273 9.11838 63.7336 9.79336C63.4523 9.45587 63.1711 9.17465 62.8336 8.83716C60.4712 6.58721 57.4899 5.68712 54.0588 6.19336C53.9463 6.19336 53.8338 6.30588 53.7213 6.36213C53.665 6.47463 53.6088 6.58718 53.6088 6.69968C53.6088 6.69968 53.6088 6.69959 53.6088 6.75584C49.9526 9.56828 51.4151 13.787 52.6525 16.0932C52.765 16.2619 52.9901 16.3744 53.1588 16.3181C55.015 15.9244 56.4212 16.2058 57.5462 17.2745C57.5462 17.2745 57.49 17.2744 57.49 17.2182C56.4212 16.2619 55.0712 15.9807 53.4963 16.3744C53.3275 16.4307 53.215 16.5432 53.1588 16.6557C53.1026 16.8244 53.1025 16.9932 53.215 17.1057C53.2713 17.162 53.2713 17.2182 53.3275 17.2745C49.1089 19.0182 48.7714 22.6181 48.3777 26.3868C48.1527 28.7492 47.9277 31.2241 46.8027 33.6428C45.5652 36.3427 38.9841 39.6614 31.3905 43.4863C21.097 48.6612 8.32851 55.0736 3.15362 63.061C-0.61505 68.8546 -0.727548 77.9106 2.87238 90.0041C5.51607 98.9476 9.34099 106.26 9.39724 106.316C9.50974 106.485 9.62223 106.597 9.84722 106.597C9.90347 106.597 9.90346 106.597 9.90346 106.597L60.2461 97.7664C60.3586 97.7664 60.4712 97.654 60.5836 97.5415C60.6399 97.429 60.6961 97.3165 60.6399 97.1478C60.6399 97.0353 57.8275 84.0418 57.7712 78.8669C57.715 75.8295 60.5836 72.8482 64.5773 68.6858C67.3897 65.8734 70.4272 62.7235 73.4646 58.7298ZM56.9275 78.8106C57.04 83.5918 59.2337 94.3353 59.7399 96.8102L10.241 105.472C8.66601 102.266 -4.04623 76.0545 4.16609 63.511C9.22848 55.7486 21.8845 49.3925 32.0093 44.2739C40.0528 40.224 46.4652 37.0178 47.8714 33.9803C49.0526 31.3929 49.3339 28.7492 49.5589 26.3868C49.9526 22.4493 50.2339 19.3556 54.4525 17.8931C54.6213 17.8369 54.7338 17.7245 54.7338 17.5557C54.79 17.387 54.7338 17.2182 54.6775 17.1057C55.6338 16.9932 56.4212 17.2744 57.0962 17.8931C61.5399 21.943 59.0649 39.0428 59.0649 39.2115C59.0087 39.4928 59.1774 39.7178 59.4587 39.774C59.7399 39.8302 59.9649 39.6614 60.0212 39.3801C60.1899 38.6489 63.6773 21.6618 58.5024 16.4869C57.2087 15.2494 55.5775 14.7433 53.5526 15.137C52.3151 12.6621 51.5838 9.34332 54.6213 7.20586C54.7338 7.14961 54.79 7.03712 54.79 6.92462C57.715 6.64337 60.2461 7.48719 62.3274 9.39965C70.4272 16.9932 68.9085 39.2677 68.9085 39.6614C68.9085 39.9426 69.0772 40.1677 69.3585 40.1677C69.6397 40.224 69.8647 39.9989 69.8647 39.7177C69.921 38.7052 71.6646 15.0244 62.8898 7.03709C60.6399 5.01213 57.94 4.1684 54.79 4.50589C55.0713 2.36844 56.4212 1.18729 58.7274 1.0748C64.1273 0.793553 71.2709 8.89338 72.1147 10.9183C72.1709 11.0308 72.2834 11.1433 72.3959 11.1996C72.5084 11.2558 72.6771 11.2558 72.7896 11.1996C72.7896 11.1996 72.9584 11.0871 73.2959 11.0871C76.4458 19.0744 76.0521 37.3552 76.0521 37.5802C76.0521 37.8615 76.2771 38.0865 76.5021 38.0865C76.7833 38.0865 77.0083 37.8615 77.0083 37.6365C77.0083 36.9053 77.5145 19.7494 75.8833 11.7621C77.5708 12.7183 79.877 15.0245 82.4082 20.3682C83.4207 22.5619 80.4957 47.9863 72.7896 58.1673C69.7522 62.161 66.771 65.2547 64.1273 68.0109C59.8524 72.2858 56.8712 75.3794 56.9275 78.8106Z" fill="#F9C09D"/>
</svg>
