<svg width="86" height="130" viewBox="0 0 86 130" fill="none" xmlns="http://www.w3.org/2000/svg">
<path d="M85.1728 108.452C84.9478 108.452 62.1108 105.415 52.9985 72.059C43.2674 36.566 26.0553 11.929 17.5617 4.72919C12.3306 0.341778 7.49319 0.28553 4.34325 1.07301C4.23076 1.07301 4.17451 1.12929 4.11826 1.24179C2.65579 2.873 1.30582 4.61663 0.124594 6.36035C0.0683457 6.47284 0.0120935 6.5854 0.0683423 6.69789C0.968323 16.2602 3.55577 41.2346 8.78691 66.2653C15.4805 98.3271 23.7491 118.127 33.4801 125.102C33.5364 125.158 33.5926 125.158 33.6489 125.158C39.8925 126.789 46.3049 128.364 52.661 129.939C52.7172 129.939 52.7172 129.939 52.7735 129.939H52.8297C71.6731 128.251 85.5103 109.408 85.679 109.239C85.7915 109.127 85.7915 108.902 85.7353 108.733C85.5103 108.564 85.3415 108.452 85.1728 108.452ZM52.661 128.927C46.3611 127.408 40.005 125.833 33.8176 124.202C11.3744 107.946 2.54329 23.91 0.912074 6.69789C2.03705 5.06668 3.27453 3.43546 4.6245 1.91674C7.54944 1.24176 11.9931 1.35423 16.8305 5.40414C25.2678 12.4915 42.3112 36.9597 51.986 72.2277C60.3108 102.602 79.9417 108.339 84.2166 109.183C81.6854 112.502 69.0856 127.464 52.661 128.927Z" fill="#4461AB"/>
</svg>
