<svg width="24" height="20" viewBox="0 0 24 20" fill="none" xmlns="http://www.w3.org/2000/svg">
<path d="M22.386 0.314599C19.7423 -0.360387 16.8173 0.427151 13.6111 2.62085C6.97378 7.12076 0.89892 16.8519 0.617676 19.2706C0.617676 19.4956 0.673925 19.6642 0.89892 19.7767C0.955169 19.833 1.01141 19.833 1.12391 19.833C1.23641 19.833 1.40516 19.7768 1.46141 19.6643C9.33624 11.3394 18.7298 7.62697 23.2859 5.82701L23.5109 5.71454C23.7359 5.60204 23.8484 5.37705 23.7922 5.15205C23.5672 4.25207 23.2297 2.6771 22.7234 0.652146C22.6672 0.4834 22.5547 0.370847 22.386 0.314599ZM2.41763 17.358C4.27384 13.7581 8.94249 7.00821 14.1736 3.40828C16.4798 1.83332 18.6173 1.04586 20.5298 1.04586C20.9797 1.04586 21.4297 1.10208 21.8797 1.15833C22.2735 2.78955 22.5547 4.08338 22.7797 4.92711C18.3923 6.67082 9.95497 10.1019 2.41763 17.358Z" fill="#E8AE37"/>
</svg>
