<svg width="174" height="186" viewBox="0 0 174 186" fill="none" xmlns="http://www.w3.org/2000/svg">
<path d="M71.1736 107.408C74.0985 105.383 76.7985 104.652 79.1609 105.271C79.3297 105.327 79.4984 105.271 79.6109 105.158C79.7234 105.046 79.7797 104.877 79.7234 104.708C74.6048 83.3338 56.2114 12.6852 35.1181 2.22292C31.8557 0.591703 28.5933 0.479233 25.4996 1.8292C12.7873 7.45408 6.43122 36.0848 3.84378 52.6782C-3.52481 98.8585 -0.487375 160.563 14.5873 174.063C23.6434 182.219 50.474 185.594 80.6796 185.594C113.754 185.594 150.991 181.544 173.603 175.357C173.771 175.301 173.94 175.132 173.94 174.963C173.94 174.794 173.884 174.569 173.715 174.457C153.859 162.532 143.622 126.252 138.728 108.814C137.828 105.664 137.153 103.19 136.591 101.671C136.535 101.502 136.366 101.333 136.141 101.333C122.191 101.502 96.5981 102.796 80.9046 109.602L80.7921 109.152C80.7359 109.039 80.6796 108.871 80.5671 108.814C80.4546 108.758 80.2859 108.758 80.1734 108.814L79.9484 108.927C75.6735 110.614 67.0674 114.046 59.4176 121.358C61.2175 117.758 65.8862 111.008 71.1736 107.408ZM57.6176 123.27C57.6176 123.495 57.6739 123.664 57.8989 123.777C58.0676 123.889 58.2926 123.833 58.4614 123.664C66.1674 115.564 75.336 111.796 79.9484 109.939L80.0609 110.389C80.1171 110.558 80.1734 110.671 80.3421 110.727C80.4546 110.783 80.6234 110.783 80.7359 110.727C96.0918 103.865 121.685 102.515 135.747 102.346C136.253 103.865 136.928 106.227 137.716 109.152C142.61 126.42 152.622 162.138 172.196 174.794C150.934 180.475 116.904 184.3 85.067 184.638C49.0116 185.032 23.5309 180.925 15.1498 173.444C8.28744 167.313 3.50629 150.27 1.65008 125.464C-0.037385 102.627 1.08759 75.5152 4.68751 52.9594C9.13117 25.06 16.8373 6.77913 25.7808 2.84171C27.0745 2.27922 28.4245 1.99798 29.7182 1.99798C31.2932 1.99798 32.9244 2.39169 34.5556 3.23542C55.0302 13.3602 73.1423 82.2087 78.4859 104.314C76.0672 103.977 73.3673 104.765 70.4986 106.733C63.9737 111.121 57.9551 120.852 57.6176 123.27Z" fill="#FCD375"/>
</svg>
