<svg width="67" height="47" viewBox="0 0 67 47" fill="none" xmlns="http://www.w3.org/2000/svg">
<path d="M36.4904 0.847869C25.0719 1.07286 9.71593 3.60409 1.22236 14.2351C-0.690103 16.6538 6.05977 42.0221 9.60344 45.7908C10.1097 46.3532 10.5597 46.522 10.9534 46.522C11.2346 46.522 11.5159 46.4094 11.6284 46.2969C14.3846 44.3845 48.1901 36.0034 65.6835 31.841C65.9085 31.7848 66.0772 31.5598 66.0772 31.3348C65.6835 27.0599 63.4335 5.68532 61.3523 3.99786C59.9461 2.98538 48.6964 0.622874 36.4904 0.847869ZM65.0085 30.9973C59.8336 32.2348 14.4971 43.0908 11.0659 45.5095C11.0096 45.5658 10.8409 45.6782 10.3347 45.172C6.22851 40.9533 0.941106 16.2039 1.95358 14.8539C10.2222 4.50412 25.6906 1.74791 38.684 1.74791C50.1026 1.74791 59.6086 3.82914 60.6773 4.72912C62.0273 5.8541 63.996 21.2662 65.0085 30.9973Z" fill="#504566"/>
</svg>
